<mxfile host="app.diagrams.net" modified="2022-12-03T14:00:21.356Z" agent="5.0 (Windows NT 10.0; Win64; x64) AppleWebKit/537.36 (KHTML, like Gecko) Chrome/107.0.0.0 Safari/537.36" version="20.6.0" etag="24e3wOiiU7h-TCVabqAS" type="github">
  <diagram id="JODqEMpE88gugYrYGY8W" name="Trang-1">
    <mxGraphModel dx="1043" dy="633" grid="1" gridSize="10" guides="1" tooltips="1" connect="1" arrows="1" fold="1" page="1" pageScale="1" pageWidth="827" pageHeight="1169" math="0" shadow="0">
      <root>
        <mxCell id="0" />
        <mxCell id="1" parent="0" />
        <mxCell id="lxZn6DWTCoBXOgKpksJs-2" value="Quản lý nhân sự Công Ty" style="shape=umlFrame;whiteSpace=wrap;html=1;width=190;height=30;fillColor=#b1ddf0;strokeColor=#10739e;fontStyle=1" vertex="1" parent="1">
          <mxGeometry x="200" y="60" width="570" height="300" as="geometry" />
        </mxCell>
        <mxCell id="lxZn6DWTCoBXOgKpksJs-3" value="QUẢN LÝ NHÂN SỰ CÔNG TY" style="ellipse;whiteSpace=wrap;html=1;fillColor=#fff2cc;strokeColor=#d6b656;fillStyle=auto;shadow=1;sketch=0;fontStyle=1;gradientColor=#ffd966;" vertex="1" parent="1">
          <mxGeometry x="390" y="110" width="190" height="50" as="geometry" />
        </mxCell>
        <mxCell id="lxZn6DWTCoBXOgKpksJs-4" value="Quản lý nhân viên" style="ellipse;whiteSpace=wrap;html=1;fillColor=#fff2cc;strokeColor=#d6b656;shadow=1;fontStyle=1" vertex="1" parent="1">
          <mxGeometry x="210" y="250" width="120" height="40" as="geometry" />
        </mxCell>
        <mxCell id="lxZn6DWTCoBXOgKpksJs-5" value="Quản lý chế độ chính sách" style="ellipse;whiteSpace=wrap;html=1;fontStyle=1;fillColor=#fff2cc;strokeColor=#d6b656;shadow=1;" vertex="1" parent="1">
          <mxGeometry x="343" y="245" width="141" height="50" as="geometry" />
        </mxCell>
        <mxCell id="lxZn6DWTCoBXOgKpksJs-6" value="Quản lý tiền lương,&lt;br&gt;khen thưởng" style="ellipse;whiteSpace=wrap;html=1;fontStyle=1;fillColor=#fff2cc;strokeColor=#d6b656;shadow=1;" vertex="1" parent="1">
          <mxGeometry x="500" y="245" width="130" height="50" as="geometry" />
        </mxCell>
        <mxCell id="lxZn6DWTCoBXOgKpksJs-7" value="Quản lý hệ thống" style="ellipse;whiteSpace=wrap;html=1;fontStyle=1;fillColor=#fff2cc;strokeColor=#d6b656;shadow=1;" vertex="1" parent="1">
          <mxGeometry x="640" y="250" width="120" height="40" as="geometry" />
        </mxCell>
        <mxCell id="lxZn6DWTCoBXOgKpksJs-14" value="" style="endArrow=none;html=1;rounded=0;" edge="1" parent="1">
          <mxGeometry width="50" height="50" relative="1" as="geometry">
            <mxPoint x="260" y="200" as="sourcePoint" />
            <mxPoint x="700" y="200" as="targetPoint" />
          </mxGeometry>
        </mxCell>
        <mxCell id="lxZn6DWTCoBXOgKpksJs-15" value="" style="endArrow=classic;html=1;rounded=0;" edge="1" parent="1">
          <mxGeometry width="50" height="50" relative="1" as="geometry">
            <mxPoint x="260" y="200" as="sourcePoint" />
            <mxPoint x="260" y="250" as="targetPoint" />
          </mxGeometry>
        </mxCell>
        <mxCell id="lxZn6DWTCoBXOgKpksJs-16" value="" style="endArrow=classic;html=1;rounded=0;entryX=0.5;entryY=0;entryDx=0;entryDy=0;" edge="1" parent="1" target="lxZn6DWTCoBXOgKpksJs-5">
          <mxGeometry width="50" height="50" relative="1" as="geometry">
            <mxPoint x="414" y="200" as="sourcePoint" />
            <mxPoint x="420" y="240" as="targetPoint" />
          </mxGeometry>
        </mxCell>
        <mxCell id="lxZn6DWTCoBXOgKpksJs-17" value="" style="endArrow=classic;html=1;rounded=0;entryX=0.5;entryY=0;entryDx=0;entryDy=0;" edge="1" parent="1" target="lxZn6DWTCoBXOgKpksJs-6">
          <mxGeometry width="50" height="50" relative="1" as="geometry">
            <mxPoint x="565" y="200" as="sourcePoint" />
            <mxPoint x="460" y="230" as="targetPoint" />
          </mxGeometry>
        </mxCell>
        <mxCell id="lxZn6DWTCoBXOgKpksJs-18" value="" style="endArrow=classic;html=1;rounded=0;entryX=0.5;entryY=0;entryDx=0;entryDy=0;" edge="1" parent="1" target="lxZn6DWTCoBXOgKpksJs-7">
          <mxGeometry width="50" height="50" relative="1" as="geometry">
            <mxPoint x="700" y="200" as="sourcePoint" />
            <mxPoint x="460" y="230" as="targetPoint" />
          </mxGeometry>
        </mxCell>
        <mxCell id="lxZn6DWTCoBXOgKpksJs-19" value="" style="endArrow=none;html=1;rounded=0;exitX=0.5;exitY=1;exitDx=0;exitDy=0;" edge="1" parent="1" source="lxZn6DWTCoBXOgKpksJs-3">
          <mxGeometry width="50" height="50" relative="1" as="geometry">
            <mxPoint x="410" y="280" as="sourcePoint" />
            <mxPoint x="485" y="200" as="targetPoint" />
          </mxGeometry>
        </mxCell>
      </root>
    </mxGraphModel>
  </diagram>
</mxfile>
